<svg xmlns="http://www.w3.org/2000/svg" viewBox="0 0 256 256" width="256" height="256">
  <defs>
    <linearGradient id="ring" x1="0" y1="0" x2="1" y2="1">
      <stop offset="0" stop-color="#ffd0e2"/><stop offset="0.55" stop-color="#ff8db7"/><stop offset="1" stop-color="#ff6aa0"/>
    </linearGradient>
    <linearGradient id="bow" x1="0" y1="0" x2="1" y2="1"><stop offset="0" stop-color="#ffa3c6"/><stop offset="1" stop-color="#ff5c97"/></linearGradient>
    <filter id="soft" x="-20%" y="-20%" width="140%" height="140%"><feGaussianBlur stdDeviation="2.4"/></filter>
  </defs>
  <circle cx="128" cy="128" r="101" fill="none" stroke="#ff8db7" stroke-opacity="0.55" stroke-width="7" filter="url(#soft)"/>
  <circle cx="128" cy="128" r="95.5" fill="none" stroke="url(#ring)" stroke-width="11"/>
  <circle cx="128" cy="128" r="90.6" fill="none" stroke="#fff" stroke-opacity="0.7" stroke-width="1.6"/>
  <circle cx="128" cy="128" r="101.2" fill="none" stroke="#e2457f" stroke-opacity="0.35" stroke-width="1.2"/>
  <circle cx="128" cy="128" r="95.5" fill="none" stroke="#fff" stroke-opacity="0.92" stroke-width="3.4" stroke-linecap="round" stroke-dasharray="0 25" transform="rotate(-90 128 128)"/>
  <g transform="translate(194.2 49.1) rotate(42)">
    <path d="M-1 6 L-16 34 L-6 31 L-2 41 L5 9 Z" fill="#ff5c97" stroke="#d93a78" stroke-width="1.4" stroke-linejoin="round"/>
    <path d="M1 6 L14 32 L7 30 L9 40 L-3 9 Z" fill="#ff7aa9" stroke="#d93a78" stroke-width="1.4" stroke-linejoin="round"/>
    <path d="M0 0 C-8 -17 -34 -21 -38 -6 C-41 9 -15 13 0 0 Z" fill="url(#bow)" stroke="#d93a78" stroke-width="1.6" stroke-linejoin="round"/>
    <path d="M0 0 C8 -17 34 -21 38 -6 C41 9 15 13 0 0 Z" fill="url(#bow)" stroke="#d93a78" stroke-width="1.6" stroke-linejoin="round"/>
    <path d="M-10 -5 C-18 -10 -26 -10 -30 -6" fill="none" stroke="#fff" stroke-opacity="0.75" stroke-width="2.2" stroke-linecap="round"/>
    <path d="M10 -5 C18 -10 26 -10 30 -6" fill="none" stroke="#fff" stroke-opacity="0.75" stroke-width="2.2" stroke-linecap="round"/>
    <circle cx="0" cy="0" r="7.5" fill="#ff4f8e" stroke="#d93a78" stroke-width="1.6"/>
    <ellipse cx="-2" cy="-2.4" rx="2.6" ry="1.8" fill="#fff" fill-opacity="0.8"/>
  </g>
  <g fill="#fff" stroke="#ff8db7" stroke-width="0.8">
    <polygon points="55.7,40.7 57.1,46.4 62.7,47.7 57.1,49.1 55.7,54.7 54.3,49.1 48.7,47.7 54.3,46.4"/>
    <polygon points="183.0,218.3 184.0,222.3 188.0,223.3 184.0,224.3 183.0,228.3 182.0,224.3 178.0,223.3 182.0,222.3"/>
  </g>
</svg>
